<svg width="102" height="34" viewBox="0 0 102 34" fill="none" xmlns="http://www.w3.org/2000/svg">
<g clip-path="url(#clip0_2_560)">
<path d="M98.5174 20.3909L101.338 22.2715C100.423 23.62 98.233 25.9337 94.447 25.9337C89.7457 25.9337 86.2445 22.2963 86.2445 17.6691C86.2445 12.7451 89.7828 9.4046 94.0512 9.4046C98.3442 9.4046 100.447 12.8192 101.128 14.6626L101.499 15.603L90.4386 20.1806C91.2799 21.8385 92.5915 22.6798 94.447 22.6798C96.303 22.6798 97.5895 21.7643 98.5174 20.3909ZM89.8448 17.4095L97.2308 14.3411C96.8225 13.3143 95.6102 12.5844 94.1624 12.5844C92.3192 12.5844 89.7582 14.2175 89.8448 17.4095Z" fill="#FF302F"/>
<path d="M80.9122 0.979325H84.4751V25.1791H80.9122V0.979126V0.979325Z" fill="#20B15A"/>
<path d="M75.2953 10.0479H78.7347V24.7459C78.7347 30.8452 75.1345 33.3567 70.8784 33.3567C66.87 33.3567 64.4576 30.6597 63.5543 28.4699L66.7091 27.1583C67.2781 28.5068 68.6515 30.103 70.8784 30.103C73.6126 30.103 75.2953 28.4079 75.2953 25.2408V24.0531H75.1716C74.3549 25.0428 72.7961 25.9335 70.8166 25.9335C66.6843 25.9335 62.8983 22.3332 62.8983 17.6939C62.8983 13.0295 66.6843 9.39227 70.8166 9.39227C72.7838 9.39227 74.3549 10.2707 75.1716 11.2357H75.2953V10.0481V10.0479ZM75.5426 17.6939C75.5426 14.774 73.6002 12.646 71.1259 12.646C68.6266 12.646 66.5234 14.774 66.5234 17.6939C66.5234 20.5764 68.6266 22.6673 71.1259 22.6673C73.6004 22.6798 75.5428 20.5764 75.5428 17.6939H75.5426Z" fill="#3686F7"/>
<path d="M43.3384 17.6319C43.3384 22.3952 39.6269 25.8964 35.0739 25.8964C30.5211 25.8964 26.8094 22.3829 26.8094 17.6319C26.8094 12.844 30.5211 9.35516 35.0739 9.35516C39.6269 9.35516 43.3384 12.844 43.3384 17.6319ZM39.7258 17.6319C39.7258 14.6628 37.5729 12.6212 35.0739 12.6212C32.5749 12.6212 30.422 14.6628 30.422 17.6319C30.422 20.5764 32.5749 22.6427 35.0739 22.6427C37.5731 22.6427 39.7258 20.5764 39.7258 17.6319Z" fill="#FF302F"/>
<path d="M61.3891 17.6691C61.3891 22.4324 57.6775 25.9335 53.1247 25.9335C48.5717 25.9335 44.8602 22.4322 44.8602 17.6691C44.8602 12.8811 48.5717 9.4046 53.1247 9.4046C57.6775 9.4046 61.3891 12.8688 61.3891 17.6691ZM57.764 17.6691C57.764 14.7 55.6114 12.6583 53.1122 12.6583C50.6131 12.6583 48.4603 14.7 48.4603 17.6691C48.4603 20.6136 50.6131 22.6798 53.1122 22.6798C55.6237 22.6798 57.764 20.6012 57.764 17.6691Z" fill="#FFBA40"/>
<path d="M13.225 22.3086C8.04103 22.3086 3.98317 18.1269 3.98317 12.9429C3.98317 7.75919 8.04103 3.5774 13.225 3.5774C16.0211 3.5774 18.0623 4.67846 19.5717 6.08894L22.0586 3.60223C19.9554 1.58562 17.147 0.0512085 13.225 0.0512085C6.12351 0.0514071 0.147751 5.84167 0.147751 12.9429C0.147751 20.0446 6.12351 25.8346 13.225 25.8346C17.0604 25.8346 19.9554 24.5727 22.2195 22.222C24.5453 19.896 25.2629 16.6298 25.2629 13.9822C25.2629 13.1532 25.164 12.2996 25.0526 11.6687H13.225V15.1081H21.6503C21.4028 17.2609 20.7224 18.7332 19.7203 19.7351C18.5078 20.9601 16.5903 22.3086 13.225 22.3086Z" fill="#3686F7"/>
</g>
<defs>
<clipPath id="clip0_2_560">
<rect width="101.685" height="33.3653" fill="white"/>
</clipPath>
</defs>
</svg>
