<svg width="180" height="34" viewBox="0 0 180 34" fill="none" xmlns="http://www.w3.org/2000/svg">
<g clip-path="url(#clip0_2_552)">
<path d="M3.7283 25.8688C3.06581 25.8702 2.41482 25.6957 1.84183 25.3632C1.26883 25.0307 0.79438 24.552 0.466928 23.9761C0.144433 23.4043 -0.0164288 22.7555 0.00157496 22.0993C0.0195787 21.443 0.215769 20.804 0.569131 20.2508L7.28574 9.70382C7.62947 9.13694 8.1175 8.67146 8.69999 8.35492C9.28248 8.03838 9.93855 7.88211 10.6012 7.90209C11.2634 7.91795 11.9094 8.10945 12.4733 8.45701C13.0371 8.80456 13.4985 9.29569 13.8102 9.88013C14.1173 10.46 14.2607 11.1126 14.2251 11.7678C14.1895 12.423 13.9763 13.0562 13.6083 13.5995L6.89589 24.1475C6.55545 24.6779 6.08661 25.1138 5.53282 25.4148C4.97903 25.7157 4.35822 25.872 3.72795 25.8691L3.7283 25.8688Z" fill="#F62B54"/>
<path d="M15.2487 25.8687C13.8941 25.8687 12.6476 25.1445 11.993 23.9802C11.6713 23.4099 11.5108 22.7629 11.5289 22.1084C11.547 21.4539 11.7428 20.8167 12.0955 20.265L18.7991 9.74198C19.1378 9.16711 19.624 8.6933 20.2075 8.3697C20.791 8.0461 21.4504 7.88449 22.1174 7.90162C23.4836 7.93183 24.7216 8.69607 25.3478 9.89125C25.6534 10.4766 25.7924 11.1347 25.7496 11.7936C25.7069 12.4526 25.4841 13.0871 25.1055 13.6282L18.4037 24.1509C18.0643 24.679 17.5974 25.1132 17.046 25.4134C16.4946 25.7135 15.8765 25.87 15.2487 25.8683V25.8687Z" fill="#FFCC00"/>
<path d="M26.5118 25.9568C28.4216 25.9568 29.9698 24.4411 29.9698 22.5714C29.9698 20.7018 28.4216 19.1861 26.5118 19.1861C24.602 19.1861 23.0537 20.7018 23.0537 22.5714C23.0537 24.4411 24.602 25.9568 26.5118 25.9568Z" fill="#00CA72"/>
<path d="M176.732 19.3828C177.776 19.3828 178.401 20.1256 178.401 21.3422V25.5114H179.82V21.2467C179.82 19.178 178.845 17.9783 177.012 17.9783C176.295 17.9783 175.156 18.1746 174.478 19.4938C174.32 19.1046 174.06 18.7655 173.725 18.5123C173.39 18.2592 172.993 18.1016 172.575 18.0562C172.312 18.0082 172.045 17.9925 171.778 18.0095C171.195 18.0562 170.156 18.4194 169.768 19.2416V18.136H168.347V25.5114H169.768V21.5315C169.768 19.983 170.781 19.3828 171.795 19.3828C172.746 19.3828 173.371 20.1098 173.371 21.3264V25.5114H174.782V21.5315C174.782 20.2987 175.522 19.3684 176.731 19.3828H176.732ZM163.135 24.279C163.457 24.2856 163.777 24.2256 164.074 24.1027C164.372 23.9797 164.641 23.7966 164.864 23.5647C165.089 23.3311 165.265 23.0544 165.381 22.7512C165.496 22.4479 165.549 22.1245 165.537 21.8002C165.537 20.3145 164.444 19.3828 163.135 19.3828C161.825 19.3828 160.733 20.3145 160.733 21.8002C160.72 22.1235 160.772 22.4462 160.887 22.7487C161.002 23.0512 161.177 23.3273 161.402 23.5605C161.624 23.7922 161.891 23.9755 162.188 24.0992C162.484 24.2228 162.803 24.284 163.124 24.279H163.135ZM163.135 25.6621C161.06 25.6621 159.328 24.1298 159.328 21.7917C159.328 19.4537 161.06 17.9695 163.135 17.9695C165.21 17.9695 166.956 19.4537 166.956 21.7917C166.956 24.1298 165.2 25.6691 163.125 25.6691L163.135 25.6621ZM152.021 21.7917L152.007 21.8002C152.007 19.4621 153.785 17.9783 155.873 17.9695C156.398 17.9593 156.919 18.0595 157.403 18.2634C157.886 18.4674 158.322 18.7706 158.681 19.1534L157.605 20.0701C157.377 19.8457 157.106 19.6688 156.809 19.5496C156.512 19.4303 156.194 19.3711 155.874 19.3754C154.564 19.3754 153.426 20.3075 153.426 21.7917C153.426 22.7948 154.022 23.6988 154.937 24.0827C155.385 24.2701 155.878 24.3191 156.354 24.2232C156.829 24.1274 157.265 23.8911 157.605 23.545L158.697 24.4613C158.336 24.8482 157.899 25.155 157.413 25.3619C156.926 25.5689 156.402 25.6713 155.873 25.6625C153.8 25.6625 152.021 24.1298 152.021 21.7917ZM147.478 24.0957C147.475 23.8353 147.575 23.5844 147.757 23.3981C147.939 23.2119 148.188 23.1055 148.448 23.1025C148.709 23.1055 148.957 23.2119 149.139 23.3981C149.321 23.5844 149.422 23.8353 149.419 24.0957C149.406 24.3454 149.298 24.5807 149.118 24.7539C148.938 24.927 148.698 25.0249 148.448 25.0275C148.198 25.0249 147.959 24.927 147.778 24.7539C147.598 24.5807 147.491 24.3454 147.478 24.0957ZM151.36 8.75997H146.306L142.765 17.8915L139.241 8.75997H134.188L140.331 23.1892L136.511 32.7289H141.527L151.36 8.75997ZM120.629 16.7855C120.629 19.0909 122.643 20.6078 124.623 20.6078C126.568 20.6078 128.479 19.1959 128.479 16.7841C128.479 14.3724 126.568 12.9594 124.623 12.9594C122.643 12.9594 120.629 14.4777 120.629 16.7841V16.7855ZM128.479 24.8424V23.0168C127.455 24.5681 125.064 25.1543 123.838 25.1543C119.776 25.1543 115.714 21.9526 115.714 16.7841C115.714 11.6174 119.775 8.41543 123.837 8.41543C124.861 8.41543 127.251 8.75716 128.479 10.5501V8.76594H133.189V24.8455L128.48 24.8441V24.8427L128.479 24.8424ZM114.373 24.8424H109.663V22.8447C108.876 24.3247 106.968 25.1873 104.987 25.1873C100.89 25.1873 97.2715 21.9154 97.2715 16.8495C97.2715 11.6884 100.89 8.41262 104.987 8.41262C106.965 8.41262 108.879 9.23797 109.663 10.7194V0H114.373V24.8427V24.8424ZM109.56 16.7487C109.56 14.3379 107.82 12.925 105.875 12.925C103.86 12.925 102.187 14.4405 102.187 16.7487C102.187 19.1306 103.86 20.6391 105.874 20.6391C107.856 20.6419 109.56 19.0568 109.56 16.7487Z" fill="#333333"/>
<path d="M85.6259 16.3332C85.6259 13.8887 86.8896 13.0616 88.5614 13.0616C90.165 13.0616 91.3265 14.129 91.3265 16.2633V24.8399H96.0707V15.2318C96.0707 10.6526 93.8166 8.4126 90.2321 8.4126C88.3552 8.4126 86.4783 9.48029 85.6242 11.0994V8.75995H80.8828V24.8399H85.6259V16.3332ZM71.2493 25.116C66.744 25.116 62.986 21.8103 62.986 16.7472C62.986 11.6813 66.7398 8.40839 71.2493 8.40839C75.7589 8.40839 79.545 11.6813 79.545 16.7472C79.545 21.8132 75.7544 25.1174 71.2493 25.1174V25.116ZM71.2493 20.4343C73.2274 20.4343 74.8679 18.9855 74.8679 16.7487C74.8679 14.5785 73.2288 13.0971 71.2493 13.0971C70.7727 13.0897 70.2996 13.1794 69.8588 13.3607C69.4179 13.542 69.0186 13.8112 68.6851 14.1518C68.3497 14.4942 68.0866 14.9005 67.9113 15.3466C67.736 15.7927 67.6522 16.2695 67.6649 16.7487C67.6663 18.9883 69.304 20.4343 71.2493 20.4343Z" fill="#333333"/>
<path d="M54.4803 13.063C55.8792 13.063 57.1088 14.1658 57.1088 16.2647V24.8427H61.8185V15.7098C61.8185 10.8546 59.458 8.40979 55.6741 8.40979C54.5502 8.40979 52.4324 8.75152 50.8958 11.2673C50.0079 9.40724 48.3017 8.44245 45.78 8.44245C44.9045 8.43801 44.0463 8.68582 43.3079 9.15625C42.5696 9.62667 41.9823 10.2998 41.6164 11.0952V8.76135H36.8694V24.8413H41.6122V16.3332C41.6122 13.8887 42.944 13.0616 44.3769 13.0616C45.7431 13.0616 46.9699 14.129 47.0054 16.1611V24.8413H51.7496V16.3332C51.7496 13.9951 52.9788 13.0644 54.4803 13.0644V13.063Z" fill="#333333"/>
</g>
<defs>
<clipPath id="clip0_2_552">
<rect width="179.821" height="33.3653" fill="white"/>
</clipPath>
</defs>
</svg>
